<?xml version="1.0" standalone="no"?>
<!DOCTYPE svg PUBLIC "-//W3C//DTD SVG 20010904//EN"
 "http://www.w3.org/TR/2001/REC-SVG-20010904/DTD/svg10.dtd">
<svg version="1.0" xmlns="http://www.w3.org/2000/svg"
 width="850.000000pt" height="850.000000pt" viewBox="0 0 850.000000 850.000000"
 preserveAspectRatio="xMidYMid meet">
<metadata>
Created by potrace 1.11, written by Peter Selinger 2001-2013
</metadata>
<g transform="translate(0.000000,850.000000) scale(0.100000,-0.100000)"
fill="#000000" stroke="none">
<path d="M0 6555 c0 -1673 2 -1949 14 -1977 8 -18 40 -103 71 -188 31 -85 61
-166 66 -180 6 -13 20 -51 31 -85 11 -33 26 -74 34 -92 8 -17 14 -38 14 -46 0
-9 4 -19 10 -22 5 -3 10 -14 10 -23 0 -9 7 -30 15 -46 8 -15 15 -33 15 -38 0
-6 6 -24 14 -41 8 -18 23 -59 34 -92 11 -33 41 -116 67 -185 26 -69 51 -136
55 -150 5 -14 18 -50 30 -80 11 -30 30 -82 41 -115 12 -33 27 -74 35 -92 8
-17 14 -38 14 -46 0 -9 5 -19 10 -22 6 -3 10 -14 10 -23 0 -9 7 -30 15 -46 8
-15 15 -34 15 -42 0 -7 6 -28 14 -46 8 -18 22 -53 31 -78 10 -25 21 -54 25
-65 4 -11 29 -78 55 -150 51 -143 70 -194 91 -243 8 -18 14 -42 14 -52 0 -11
4 -20 9 -20 5 0 12 -18 16 -40 4 -22 11 -42 16 -46 5 -3 9 -12 9 -21 0 -8 6
-29 14 -46 7 -18 21 -54 31 -82 9 -27 23 -64 31 -82 8 -17 14 -36 14 -42 0 -6
7 -27 16 -48 22 -50 28 -66 54 -143 12 -36 28 -78 35 -95 7 -16 16 -41 20 -55
26 -91 152 -338 177 -348 4 -2 8 -8 8 -14 0 -9 44 -70 80 -109 163 -179 316
-290 525 -379 28 -11 59 -25 70 -30 11 -5 36 -12 55 -16 19 -3 41 -10 50 -14
24 -13 198 -39 285 -44 141 -8 310 12 460 54 22 6 47 12 55 14 36 8 60 19 60
28 0 6 7 8 15 5 8 -4 17 -2 20 3 4 6 13 10 21 10 18 0 204 105 267 151 138 99
253 228 412 459 39 56 87 124 108 151 20 27 37 51 37 53 0 8 104 151 112 154
5 2 8 8 8 12 0 8 92 142 126 183 7 9 14 19 14 22 0 3 24 38 53 78 29 39 63 89
76 110 12 20 26 37 29 37 4 0 12 9 17 20 11 21 206 302 215 310 4 3 22 28 40
55 19 28 38 55 42 60 5 6 46 64 91 130 46 66 126 180 178 253 52 73 99 140
104 149 6 9 35 51 65 93 30 43 62 87 70 100 8 12 21 28 28 36 6 7 12 15 12 18
0 3 26 42 58 86 31 44 88 122 125 175 38 52 72 95 77 95 10 0 15 -17 25 -75 3
-22 10 -53 15 -70 5 -16 16 -66 25 -110 9 -44 21 -96 26 -115 6 -19 14 -57 19
-85 5 -27 16 -81 25 -120 28 -119 52 -225 75 -340 7 -33 16 -69 21 -80 4 -11
11 -40 14 -65 21 -151 145 -297 324 -383 36 -17 68 -32 71 -32 3 -1 13 -5 23
-8 43 -17 53 -20 67 -23 8 -2 38 -9 65 -16 103 -24 385 -12 460 21 96 42 195
94 220 115 57 48 135 130 135 142 0 7 7 14 15 18 8 3 15 10 15 16 0 5 21 42
47 82 26 40 52 82 59 93 18 32 44 76 132 218 45 75 82 140 82 145 0 6 4 12 8
14 7 3 152 234 152 242 0 2 38 66 85 142 47 77 90 146 95 154 5 8 36 59 69
113 34 54 61 100 61 103 0 2 13 23 30 45 l29 41 57 -119 c31 -65 76 -159 100
-208 24 -50 44 -96 44 -103 0 -7 5 -12 10 -12 6 0 10 -5 10 -10 0 -10 165
-348 193 -396 19 -33 78 -95 122 -130 37 -29 97 -64 110 -64 3 0 5 442 5 982
l0 981 -31 66 c-17 36 -48 102 -69 146 -65 138 -100 216 -100 225 0 5 -3 10
-7 12 -5 2 -17 20 -28 41 -55 109 -192 208 -347 251 -62 18 -313 23 -322 7 -4
-5 -24 -12 -46 -16 -22 -4 -40 -10 -40 -15 0 -4 -12 -11 -26 -14 -31 -8 -94
-47 -151 -93 -48 -38 -136 -150 -160 -203 -4 -8 -58 -100 -120 -203 -62 -104
-113 -192 -113 -198 0 -5 -3 -9 -7 -9 -5 0 -24 -27 -42 -60 -36 -61 -61 -77
-61 -38 0 12 -6 49 -14 82 -8 34 -22 97 -31 141 -9 44 -21 96 -26 115 -5 19
-14 62 -20 95 -14 74 -32 166 -54 265 -18 83 -43 203 -54 265 -4 23 -10 46
-14 52 -4 6 -11 37 -17 70 -21 129 -59 295 -71 308 -5 5 -9 15 -9 23 0 14 -8
33 -54 132 -93 197 -246 383 -426 516 -67 50 -258 154 -282 154 -6 0 -24 6
-41 14 -18 8 -43 17 -57 19 -14 3 -43 10 -65 15 -77 19 -186 32 -267 32 -161
0 -402 -57 -528 -125 -14 -7 -45 -24 -70 -37 -65 -34 -186 -126 -253 -192 -51
-50 -190 -229 -242 -311 -10 -16 -23 -35 -29 -42 -6 -6 -36 -48 -66 -92 -30
-44 -82 -119 -115 -165 -33 -46 -66 -92 -72 -103 -32 -46 -278 -397 -335 -476
-35 -49 -67 -96 -73 -106 -5 -9 -35 -52 -65 -95 -87 -123 -164 -232 -180 -256
-8 -12 -21 -28 -27 -36 -7 -7 -13 -15 -13 -18 0 -3 -26 -42 -57 -85 -32 -44
-83 -116 -113 -161 -30 -44 -65 -92 -77 -107 l-22 -27 -11 30 c-6 16 -14 38
-19 49 -5 11 -19 47 -30 80 -11 33 -30 85 -41 115 -12 30 -24 64 -27 75 -3 11
-11 34 -19 52 -8 17 -14 38 -14 46 0 9 -4 19 -10 22 -5 3 -10 14 -10 23 0 9
-7 30 -15 46 -8 15 -15 33 -15 38 0 6 -6 24 -14 41 -8 18 -24 61 -37 97 -33
97 -74 211 -87 243 -7 16 -12 34 -12 42 0 8 -4 17 -10 20 -5 3 -10 13 -10 22
0 8 -6 29 -14 46 -8 18 -22 55 -31 82 -10 28 -24 64 -31 82 -8 17 -14 35 -14
39 0 7 -45 135 -70 199 -4 11 -15 40 -25 65 -9 25 -23 60 -31 78 -8 18 -14 41
-14 52 0 10 -4 21 -9 25 -5 3 -12 19 -16 36 -4 17 -13 42 -21 57 -8 15 -14 35
-14 44 0 9 -4 20 -10 23 -5 3 -10 13 -10 22 0 8 -6 29 -14 46 -8 18 -29 73
-46 122 -17 50 -49 137 -70 195 -22 58 -42 117 -46 133 -3 15 -10 30 -15 33
-5 3 -9 13 -9 22 0 9 -7 30 -15 46 -8 15 -15 34 -15 42 0 7 -6 28 -14 46 -8
18 -22 53 -31 78 -10 25 -21 54 -26 65 -5 11 -13 34 -18 50 -5 17 -23 68 -41
115 -17 47 -36 101 -42 120 -5 19 -13 40 -17 45 -4 6 -15 35 -25 65 -10 30
-24 69 -32 87 -8 17 -14 38 -14 46 0 9 -4 19 -10 22 -5 3 -10 14 -10 23 0 9
-6 29 -14 44 -8 15 -17 40 -21 57 -4 17 -11 33 -16 36 -5 4 -9 15 -9 27 0 11
-6 34 -14 51 -8 18 -28 73 -46 122 -17 50 -36 98 -41 107 -5 10 -9 23 -9 29 0
6 -6 25 -14 42 -8 18 -20 49 -26 70 l-12 37 -784 0 -784 0 0 -1945z m1590
-2125 l0 -380 190 0 191 0 -3 -77 -3 -78 -250 -3 c-137 -1 -260 0 -272 3 l-23
5 0 455 0 455 85 0 85 0 0 -380z m3470 367 c149 -54 230 -168 230 -322 0 -125
-66 -228 -186 -291 -34 -18 -143 -34 -232 -34 l-82 0 0 -124 c0 -141 3 -136
-85 -136 -93 0 -85 -46 -85 466 l0 454 203 0 c138 0 213 -4 237 -13z m460
-368 c0 -214 4 -337 11 -350 10 -19 55 -44 72 -41 4 1 7 -33 7 -76 l0 -78 -47
6 c-64 8 -119 36 -149 75 -49 65 -54 103 -54 463 l0 332 80 0 80 0 0 -331z
m-3117 84 c98 -31 184 -112 203 -189 4 -16 11 -34 16 -41 5 -6 8 -38 6 -70
l-3 -58 -233 -2 c-129 0 -236 -4 -239 -7 -10 -10 39 -77 75 -101 53 -36 157
-36 226 1 l49 26 23 -29 c33 -41 47 -70 41 -85 -2 -8 -31 -27 -63 -43 -77 -39
-215 -47 -295 -19 -62 23 -139 92 -176 159 -25 45 -27 59 -27 150 0 84 4 107
22 141 78 144 233 213 375 167z m679 3 c26 -8 58 -22 72 -31 25 -17 26 -17 26
4 0 20 5 21 80 21 l80 0 0 -305 c0 -168 -3 -305 -7 -306 -115 -10 -145 -8
-150 10 -4 17 -8 18 -31 8 -15 -6 -30 -16 -34 -22 -11 -15 -214 -13 -229 3 -7
6 -20 12 -29 12 -26 0 -109 79 -140 134 -46 79 -42 98 48 225 42 61 96 139
120 174 23 34 50 68 59 75 22 16 77 15 135 -2z m643 -1 c64 -20 109 -41 124
-59 10 -12 6 -24 -21 -65 -30 -46 -58 -66 -58 -42 0 5 -13 12 -30 16 -16 4
-32 11 -35 16 -4 5 -33 9 -65 9 -52 0 -61 -3 -76 -25 -25 -39 -3 -57 121 -100
117 -40 151 -66 179 -137 16 -44 16 -51 2 -101 -28 -98 -105 -147 -228 -147
-46 0 -92 7 -123 18 -57 21 -115 53 -115 64 0 8 69 108 75 108 2 0 23 -11 46
-25 35 -20 58 -25 111 -25 61 0 69 3 83 24 29 44 2 69 -110 102 -121 35 -178
80 -191 151 -9 50 13 131 47 167 56 60 165 81 264 51z m598 -1 c110 -35 192
-124 216 -232 15 -72 14 -119 -3 -125 -8 -3 -113 -4 -235 -2 -218 4 -221 4
-221 -16 0 -29 34 -74 76 -99 49 -31 173 -26 222 8 18 13 39 22 46 19 7 -3 27
-28 45 -56 l31 -51 -38 -23 c-70 -44 -118 -57 -210 -57 -58 0 -97 5 -116 15
-15 8 -32 15 -38 15 -9 0 -13 2 -70 50 -62 52 -108 156 -108 244 0 43 21 136
31 136 4 0 10 11 13 25 10 38 91 112 144 130 26 9 56 21 67 25 33 14 93 11
148 -6z m1742 -1 c30 -9 55 -21 55 -25 0 -4 7 -8 15 -8 8 0 15 7 15 15 0 12
15 15 74 15 l73 0 7 -300 c5 -164 5 -304 1 -310 -3 -5 -39 -10 -81 -10 -67 0
-74 2 -74 20 0 18 -3 18 -27 7 -16 -6 -31 -16 -35 -21 -3 -5 -45 -12 -92 -14
-92 -5 -149 9 -211 52 -39 28 -94 88 -95 104 0 6 -3 12 -8 12 -8 0 -32 71 -32
92 0 10 74 119 117 173 4 6 21 30 37 55 16 25 49 71 73 103 42 54 46 57 88 57
24 0 69 -8 100 -17z m743 -1 c58 -19 119 -72 144 -124 34 -70 39 -112 36 -303
l-3 -190 -75 0 -75 0 -5 195 c-5 211 -11 234 -60 263 -37 23 -119 22 -145 -1
-49 -42 -50 -45 -55 -256 l-5 -201 -75 0 -75 0 -3 308 -2 307 80 0 c64 0 80
-3 80 -15 0 -16 12 -20 24 -8 15 16 92 41 126 42 19 0 59 -7 88 -17z"/>
<path d="M4790 4480 l0 -170 100 0 c81 0 109 4 140 20 117 60 132 215 27 291
-39 28 -44 29 -154 29 l-113 0 0 -170z"/>
<path d="M2245 4372 c-31 -15 -85 -69 -85 -84 0 -4 70 -8 155 -8 85 0 155 4
155 9 0 18 -44 63 -81 81 -45 23 -102 24 -144 2z"/>
<path d="M2951 4370 c-19 -4 -52 -26 -75 -49 -41 -41 -41 -42 -41 -114 0 -65
3 -78 28 -110 96 -126 300 -73 315 82 13 135 -92 223 -227 191z"/>
<path d="M4160 4371 c-32 -18 -87 -78 -78 -86 9 -10 303 -6 306 3 5 17 -50 72
-87 88 -45 19 -99 17 -141 -5z"/>
<path d="M5918 4371 c-83 -27 -122 -90 -116 -187 4 -58 7 -66 44 -103 85 -82
196 -73 270 24 78 103 7 255 -126 270 -25 2 -57 0 -72 -4z"/>
</g>
</svg>
